#!OML:ASF F:\VICON\USERDATA\INSTALL\rory3\rory3.ASF
:FULLY-SPECIFIED
:DEGREES
185
root 0.6249145885352556 17.784477802279596 32.97074274969011 1.165762411009204 -1.373597255830398 -1.1145230607803247
lfemur -23.12935514624197 4.471475105989136 -20.802754469567727
ltibia 64.57343749650275
lfoot 1.2618469259115281 -8.59487303303364
ltoes -9.481179182735199
rfemur -11.899352824656532 5.303612765682081 30.03078822989082
rtibia 66.30220662680343
rfoot 1.5818435528983104 -6.447842348497737
rtoes -0.780120988240737
lowerback 14.3598373531369 0.9054120586023123 2.369548987478064
upperback -1.1336882672540285 2.333931365519401 1.749358619739848
thorax -9.279488998615333 1.0493902296621505 -0.6555153507336855
lowerneck -19.908379475786962 -4.401640433326666 -2.4341832214168995
upperneck 12.728893839515234 -5.910882245500451 5.41362746770646
head 7.299915460506193 -2.672927782864939 1.423292660377564
lclavicle 2.9801515526439752e-15 1.1900897868484632e-16
lhumerus -50.394879455768255 -10.720265993190177 95.925271425598
lradius 112.30824694016619
lwrist 34.631400555173514
lhand -20.677650110515057 2.909978484948023
lfingers 7.125019999999999
lthumb 5.4639120636102225 32.48752520461055
rclavicle 2.9801381671163078e-15 1.1900166246856291e-16
rhumerus -47.89360832720665 11.07842076192905 -96.6689472156111
rradius 109.69136228105738
rwrist -15.194040008405425
rhand -15.700198902445566 38.51302636456588
rfingers 7.125019999999999
rthumb 10.555929649496612 8.253176248704753
186
root 0.6373390476855239 17.844513833007518 35.38334627184895 1.3121054809772739 -1.0030670648660562 -0.8529566664066583
lfemur -23.992052157401275 4.013557775151842 -21.17195714466813
ltibia 62.80497678487708
lfoot 1.0047739406842027 -8.883649244072837
ltoes -9.878325423485016
rfemur -11.346303389446636 5.412601428208138 29.94036502819947
rtibia 68.06174816109204
rfoot 1.3029987634549243 -6.264563579248675
rtoes -0.2983511987976559
lowerback 14.353147354957004 0.9363895634707964 2.306685201654373
upperback -1.156383514785341 2.36988889038267 1.6983756171208917
thorax -9.283678592217887 0.9846591378242113 -0.7762601597827566
lowerneck -19.869450877917803 -4.384293935478373 -2.4564975553401074
upperneck 12.68910270348341 -5.8304814079277305 5.4651157613292085
head 7.300484218619199 -2.61959405242836 1.453775375075802
lclavicle 2.9801515526439752e-15 1.1900897868484632e-16
lhumerus -50.7226338396222 -11.014961025947274 95.74010273436527
lradius 111.6946128136313
lwrist 34.51466752113724
lhand -20.70803255253074 2.8902853375725397
lfingers 7.125019999999999
lthumb 5.4889862585831155 32.64795271871542
rclavicle 2.9801381671163078e-15 1.1900166246856291e-16
rhumerus -47.84552663164996 11.110813995393213 -96.77818675249327
rradius 109.89097368644241
rwrist -15.264436890590442
rhand -15.71912372691574 38.49171719611432
rfingers 7.125019999999999
rthumb 10.468024824549708 8.150876460695518
187
root 0.6421100939516544 17.871024246606417 35.94185029224849 1.327330565423757 -0.9193137326660858 -0.827042931015783
lfemur -23.300133069518857 4.184294102823641 -20.938176041750708
ltibia 60.828245424965786
lfoot 0.38226781794528963 -9.324500754215583
ltoes -9.918770018166482
rfemur -14.258523001864145 4.790610517060021 28.868781857824732
rtibia 69.70342537231703
rfoot 1.464888695084638 -5.828793472878058
rtoes -0.05020736942025672
lowerback 14.369379853745487 0.9934193754316557 2.390880563886971
upperback -1.2253592091853738 2.26391419436296 1.6088491790375707
thorax -9.166385474615671 1.1702629387619374 -0.36926019667049204
lowerneck -19.85517605298838 -4.403180179040735 -2.4999568043897034
upperneck 12.724551916192508 -5.716380407641682 5.547459351316932
head 7.3142373492818376 -2.5559624560803886 1.4709718946331485
lclavicle 2.9801515526439752e-15 1.1900897868484632e-16
lhumerus -50.3068104996334 -11.00140202907679 95.7132708647504
lradius 111.6860384181675
lwrist 34.2602074704278
lhand -20.670961443557164 2.913588488828001
lfingers 7.125019999999999
lthumb 5.4345012818148675 32.666396362318004
rclavicle 2.9801381671163078e-15 1.1900166246856291e-16
rhumerus -47.76089343115977 11.216839058983647 -96.88213165247099
rradius 110.29212038013645
rwrist -15.337035026486216
rhand -15.718718895479347 38.464190818150335
rfingers 7.125019999999999
rthumb 10.6079511851532 8.301605404609813
188
root 0.649497602838039 17.897986019711592 36.854687381780295 1.3655095739730017 -0.809271472961693 -0.7299415747678237
lfemur -24.739249142621667 3.4514501324877482 -22.162458126602687
ltibia 58.780384539305544
lfoot 1.0489794337924054 -9.275817717892078
ltoes -9.872900297511086
rfemur -13.43002651290239 4.739444242923348 28.97701000401041
rtibia 70.90142231301168
rfoot 1.95194600256153 -5.332233274539595
rtoes 0.7567038377487604
lowerback 14.400780898776668 1.022583516078914 2.4533862024585718
upperback -1.2699469206832625 2.2392433435902728 1.5548550532184426
thorax -9.24141901502846 1.0742670923073872 -0.47834707754270384
lowerneck -19.815075799955917 -4.36536277296168 -2.502374400809152
upperneck 12.676367007170212 -5.677066205068418 5.552225879440178
head 7.317601785372615 -2.5523719610155613 1.4587245949343708
lclavicle 2.9801515526439752e-15 1.1900897868484632e-16
lhumerus -50.563345580170676 -11.202145536822528 95.50865130775829
lradius 111.53360876573046
lwrist 34.123941091593
lhand -20.60721016909293 2.9090365875552107
lfingers 7.125019999999999
lthumb 5.460939037443457 32.70123773862283
rclavicle 2.9801381671163078e-15 1.1900166246856291e-16
rhumerus -47.58236537309479 11.363674531706387 -96.94841109953376
rradius 110.70313719438676
rwrist -15.383184103040836
rhand -15.697798224658357 38.50436065293337
rfingers 7.125019999999999
rthumb 10.642944098662614 8.377888108805958
189
root 0.6455204769274252 17.87051849608952 36.20664003609592 1.3025474259465588 -0.8844045833849441 -0.7414883497069418
lfemur -24.10029213780274 3.605474803148767 -21.738629614182173
ltibia 56.71559346858823
lfoot 1.0970023870448693 -9.090737900800063
ltoes -9.863388193480898
rfemur -15.884612346116496 4.095752248863413 28.187092347655547
rtibia 71.1396619130901
rfoot 2.4498097867632445 -4.97512210715462
rtoes 1.3736397180137851
lowerback 14.512509280796161 1.0737839856641822 2.687746343906764
upperback -1.2625141739086994 2.4187203780555624 1.5730517861217905
thorax -9.084399379737558 1.2654638145425474 0.026241001402349903
lowerneck -19.85688469423839 -4.388990935176783 -2.5309562771326717
upperneck 12.718495208102063 -5.5934759057344765 5.6039229086239155
head 7.356340963010304 -2.507103634628697 1.4814243959193634
lclavicle 2.9801515526439752e-15 1.1900897868484632e-16
lhumerus -51.37998582719935 -11.307726471620205 95.34663100783933
lradius 110.66567042586512
lwrist 34.25832782856936
lhand -20.597052129727004 2.8384742225393493
lfingers 7.125019999999999
lthumb 5.436590466962696 32.62929681177205
rclavicle 2.9801381671163078e-15 1.1900166246856291e-16
rhumerus -47.32138778013338 11.5483304007771 -96.9856726756125
rradius 110.99095086945768
rwrist -15.360889194382747
rhand -15.705852160614121 38.48008369860029
rfingers 7.125019999999999
rthumb 10.684949844991337 8.423748460124067
